{
	"asset":{
		"generator":"Khronos glTF Blender I/O v5.0.21",
		"version":"2.0"
	},
	"extensionsUsed":[
		"KHR_materials_specular",
		"KHR_materials_ior"
	],
	"scene":0,
	"scenes":[
		{
			"name":"Scene",
			"nodes":[
				23
			]
		}
	],
	"nodes":[
		{
			"name":"head",
			"rotation":[
				0.11977512389421463,
				4.3165354645692544e-14,
				5.7113211937576125e-08,
				0.9928010106086731
			],
			"translation":[
				-2.77093826738504e-15,
				0.05121652036905289,
				-8.614733815193176e-09
			]
		},
		{
			"children":[
				0
			],
			"name":"neck",
			"rotation":[
				0.05082959681749344,
				1.1905515862054017e-07,
				1.8178081262476553e-08,
				0.9987073540687561
			],
			"scale":[
				1,
				0.9999999403953552,
				1
			],
			"translation":[
				-6.31226959590947e-10,
				0.4780470132827759,
				0.002647558692842722
			]
		},
		{
			"name":"foearm.L",
			"rotation":[
				0.08223144710063934,
				0.0033128259237855673,
				-0.00019990454893559217,
				0.9966077208518982
			],
			"scale":[
				0.9999998807907104,
				0.9999999403953552,
				1
			],
			"translation":[
				-1.900480128824711e-08,
				0.33529675006866455,
				9.313225746154785e-10
			]
		},
		{
			"children":[
				2
			],
			"name":"shoulder.L",
			"rotation":[
				-0.04103715717792511,
				0.04726143181324005,
				-0.7431814074516296,
				0.6661559343338013
			],
			"translation":[
				0.1482955813407898,
				0.3912152051925659,
				0.00335892615839839
			]
		},
		{
			"name":"foearm.R",
			"rotation":[
				0.08223143219947815,
				-0.003312812652438879,
				0.00019989001157227904,
				0.9966077208518982
			],
			"scale":[
				0.9999999403953552,
				1,
				1
			],
			"translation":[
				-8.60018189996481e-08,
				0.33529675006866455,
				-3.259629011154175e-09
			]
		},
		{
			"children":[
				4
			],
			"name":"shoulder.R",
			"rotation":[
				-0.041037317365407944,
				-0.04726160317659378,
				0.7431814074516296,
				0.6661559343338013
			],
			"scale":[
				0.9999998807907104,
				0.9999999403953552,
				1
			],
			"translation":[
				-0.1482955813407898,
				0.3912152051925659,
				0.003358855377882719
			]
		},
		{
			"children":[
				1,
				3,
				5
			],
			"name":"spine2",
			"rotation":[
				-0.004292712081223726,
				1.1920816689325875e-07,
				-5.117310464264335e-10,
				0.9999908208847046
			],
			"scale":[
				1,
				0.9999999403953552,
				1
			],
			"translation":[
				0,
				0.19872599840164185,
				0
			]
		},
		{
			"name":"calf.L",
			"rotation":[
				-0.02012963593006134,
				-2.770544779195916e-05,
				-0.017241448163986206,
				0.9996486902236938
			],
			"scale":[
				0.9999999403953552,
				1,
				1
			],
			"translation":[
				1.5555770005448721e-09,
				0.4096006453037262,
				-3.41970007866621e-10
			]
		},
		{
			"children":[
				7
			],
			"name":"thigh.L",
			"rotation":[
				0.00018013283261097968,
				-0.010873761959373951,
				-0.999792218208313,
				0.017240656539797783
			],
			"scale":[
				1.0000004768371582,
				1,
				1.0000001192092896
			],
			"translation":[
				0.08380823582410812,
				0.03261226415634155,
				-2.2318834780321595e-08
			]
		},
		{
			"name":"calf.R",
			"rotation":[
				-0.02012963593006134,
				2.770544779195916e-05,
				0.017241448163986206,
				0.9996486902236938
			],
			"scale":[
				0.9999999403953552,
				1,
				1
			],
			"translation":[
				-1.5555770005448721e-09,
				0.4096006453037262,
				-3.41970007866621e-10
			]
		},
		{
			"children":[
				9
			],
			"name":"thigh.R",
			"rotation":[
				0.00018013283261097968,
				0.010873761959373951,
				0.999792218208313,
				0.017240656539797783
			],
			"scale":[
				1.0000004768371582,
				1,
				1.0000001192092896
			],
			"translation":[
				-0.08380823582410812,
				0.03261226415634155,
				-2.2318834780321595e-08
			]
		},
		{
			"children":[
				6,
				8,
				10
			],
			"name":"spine1",
			"translation":[
				0,
				0.9591483473777771,
				0
			]
		},
		{
			"name":"RODIK.L",
			"rotation":[
				0.012186411768198013,
				-0.7070017457008362,
				-0.707001805305481,
				0.012186411768198013
			],
			"translation":[
				0.1469651311635971,
				0.5825002789497375,
				0.8505316376686096
			]
		},
		{
			"name":"RODIK.R",
			"rotation":[
				0.012186411768198013,
				0.7070017457008362,
				0.707001805305481,
				0.012186411768198013
			],
			"translation":[
				-0.1469651311635971,
				0.5825002789497375,
				0.8505316376686096
			]
		},
		{
			"name":"foot.L",
			"rotation":[
				0.9584936499595642,
				-0.022726498544216156,
				0.008222547359764576,
				0.28408756852149963
			],
			"scale":[
				1,
				1,
				1.0000003576278687
			],
			"translation":[
				-4.3371528590796515e-10,
				-1.4901161193847656e-07,
				1.0330722943763249e-09
			]
		},
		{
			"children":[
				14
			],
			"name":"PIEIK.L",
			"rotation":[
				-5.1953002184745856e-06,
				0.7071067690849304,
				-0.7071067690849304,
				5.1953002184745856e-06
			],
			"scale":[
				1,
				0.9999997019767761,
				1
			],
			"translation":[
				0.0979272723197937,
				0.10143570601940155,
				-1.969622900332979e-07
			]
		},
		{
			"name":"foot.R",
			"rotation":[
				0.9584936499595642,
				0.022726498544216156,
				-0.008222547359764576,
				0.28408756852149963
			],
			"scale":[
				1,
				1,
				1.0000003576278687
			],
			"translation":[
				4.3371528590796515e-10,
				-1.4901161193847656e-07,
				1.0330722943763249e-09
			]
		},
		{
			"children":[
				16
			],
			"name":"PIEIK.R",
			"rotation":[
				-5.1953002184745856e-06,
				-0.7071067690849304,
				0.7071067690849304,
				5.1953002184745856e-06
			],
			"scale":[
				1,
				0.9999997019767761,
				1
			],
			"translation":[
				-0.0979272723197937,
				0.10143570601940155,
				-1.969622900332979e-07
			]
		},
		{
			"name":"hand.L",
			"rotation":[
				0.7463334798812866,
				0.06849031150341034,
				-0.07556883990764618,
				0.6577118039131165
			],
			"scale":[
				0.9999999403953552,
				0.9999999403953552,
				0.9999999403953552
			],
			"translation":[
				-5.960464477539063e-08,
				-2.7939677238464355e-08,
				-4.470348358154297e-08
			]
		},
		{
			"children":[
				18
			],
			"name":"MANIK.L",
			"rotation":[
				-0.47174638509750366,
				0.526740312576294,
				-0.526740312576294,
				0.47174638509750366
			],
			"scale":[
				1,
				0.9999999403953552,
				1
			],
			"translation":[
				0.8080726861953735,
				1.4761847257614136,
				-0.0282105915248394
			]
		},
		{
			"name":"hand.R",
			"rotation":[
				0.7463334798812866,
				-0.06849031150341034,
				0.07556883990764618,
				0.6577118039131165
			],
			"scale":[
				0.9999999403953552,
				0.9999999403953552,
				0.9999999403953552
			],
			"translation":[
				5.960464477539063e-08,
				-2.7939677238464355e-08,
				-4.470348358154297e-08
			]
		},
		{
			"children":[
				20
			],
			"name":"MANIK.R",
			"rotation":[
				-0.47174638509750366,
				-0.526740312576294,
				0.526740312576294,
				0.47174638509750366
			],
			"scale":[
				1,
				0.9999999403953552,
				1
			],
			"translation":[
				-0.8080726861953735,
				1.4761847257614136,
				-0.0282105915248394
			]
		},
		{
			"mesh":0,
			"name":"Body",
			"skin":0
		},
		{
			"children":[
				22,
				11,
				12,
				13,
				15,
				17,
				19,
				21
			],
			"name":"Armature_Richard"
		}
	],
	"materials":[
		{
			"doubleSided":true,
			"extensions":{
				"KHR_materials_specular":{
					"specularFactor":0
				},
				"KHR_materials_ior":{
					"ior":1.4500000476837158
				}
			},
			"name":"H_Body",
			"pbrMetallicRoughness":{
				"baseColorTexture":{
					"index":0
				},
				"metallicFactor":0,
				"roughnessFactor":0.5
			}
		}
	],
	"meshes":[
		{
			"name":"Body",
			"primitives":[
				{
					"attributes":{
						"POSITION":0,
						"NORMAL":1,
						"TEXCOORD_0":2,
						"JOINTS_0":3,
						"WEIGHTS_0":4
					},
					"indices":5,
					"material":0
				}
			]
		}
	],
	"textures":[
		{
			"sampler":0,
			"source":0
		}
	],
	"images":[
		{
			"mimeType":"image/png",
			"name":"test.png",
			"uri":"../../models/ps1low-poly-human-richard/source/textures/test.png"
		}
	],
	"skins":[
		{
			"inverseBindMatrices":6,
			"joints":[
				11,
				6,
				1,
				0,
				3,
				2,
				5,
				4,
				8,
				7,
				10,
				9,
				12,
				13,
				15,
				14,
				17,
				16,
				19,
				18,
				21,
				20
			],
			"name":"Armature_Richard"
		}
	],
	"accessors":[
		{
			"bufferView":0,
			"componentType":5126,
			"count":1384,
			"max":[
				0.9927791357040405,
				1.8976069688796997,
				0.21316255629062653
			],
			"min":[
				-0.9927791357040405,
				-0.0031767680775374174,
				-0.14677178859710693
			],
			"type":"VEC3"
		},
		{
			"bufferView":1,
			"componentType":5126,
			"count":1384,
			"type":"VEC3"
		},
		{
			"bufferView":2,
			"componentType":5126,
			"count":1384,
			"type":"VEC2"
		},
		{
			"bufferView":3,
			"componentType":5121,
			"count":1384,
			"type":"VEC4"
		},
		{
			"bufferView":4,
			"componentType":5126,
			"count":1384,
			"type":"VEC4"
		},
		{
			"bufferView":5,
			"componentType":5123,
			"count":2064,
			"type":"SCALAR"
		},
		{
			"bufferView":6,
			"componentType":5126,
			"count":22,
			"type":"MAT4"
		}
	],
	"bufferViews":[
		{
			"buffer":0,
			"byteLength":16608,
			"byteOffset":0,
			"target":34962
		},
		{
			"buffer":0,
			"byteLength":16608,
			"byteOffset":16608,
			"target":34962
		},
		{
			"buffer":0,
			"byteLength":11072,
			"byteOffset":33216,
			"target":34962
		},
		{
			"buffer":0,
			"byteLength":5536,
			"byteOffset":44288,
			"target":34962
		},
		{
			"buffer":0,
			"byteLength":22144,
			"byteOffset":49824,
			"target":34962
		},
		{
			"buffer":0,
			"byteLength":4128,
			"byteOffset":71968,
			"target":34963
		},
		{
			"buffer":0,
			"byteLength":1408,
			"byteOffset":76096
		}
	],
	"samplers":[
		{
			"magFilter":9729,
			"minFilter":9987
		}
	],
	"buffers":[
		{
			"byteLength":77504,
			"uri":"Richard-547c20d11952247f86ff434a75091dfc.bin"
		}
	]
}
